<svg width="23" height="21" viewBox="0 0 23 21" fill="none" xmlns="http://www.w3.org/2000/svg">
<path d="M22.39 6.26251C22.3899 9.2949 20.6189 12.5109 16.9425 15.8197C15.2704 17.3188 13.4517 18.6461 11.5141 19.7816C11.493 19.7928 11.4692 19.7987 11.445 19.7987C11.4208 19.7987 11.3971 19.7928 11.3759 19.7815C9.43811 18.646 7.61936 17.3186 5.94708 15.8193C2.27091 12.5107 0.500056 9.2948 0.5 6.2625C0.500383 5.02996 0.895835 3.82987 1.62832 2.83859C2.36083 1.84728 3.39182 1.11688 4.56996 0.7546C5.7481 0.39232 7.01136 0.417238 8.1743 0.825696C9.33724 1.23416 10.3387 2.00465 11.0315 3.02405L11.445 3.63255L11.8585 3.02405C12.5513 2.00465 13.5528 1.23416 14.7157 0.825695C15.8786 0.417238 17.1419 0.392321 18.32 0.754599C19.4982 1.11688 20.5292 1.84732 21.2617 2.83861C21.9942 3.82986 22.3896 5.02995 22.39 6.26251Z" stroke="#E30957"/>
</svg>
